<svg width="426px" height="204px" viewBox="0 0 426 204" version="1.1" xmlns="http://www.w3.org/2000/svg" xmlns:xlink="http://www.w3.org/1999/xlink">
    <!-- Generator: Sketch 50 (54983) - http://www.bohemiancoding.com/sketch -->
    <title>Artboard</title>
    <desc>Created with Sketch.</desc>
    <defs/>
    <g id="Artboard" stroke="none" stroke-width="1" fill="none" fill-rule="evenodd">
        <path d="M12,191 L35.7392887,108.851013 L48.072352,108.630002 L25.9729299,188.357474 L12,191 Z M58.9292142,183.535129 C44.5643657,186.295084 37.6398034,171.372979 43.9769301,147.954231 L44.0375725,147.730128 C50.2230934,124.871637 64.9777734,106.804459 78.3503702,106.616833 C87.3705653,106.490274 91.7898724,112.489038 93.8258908,120.988517 L81.6400075,133.115285 C80.2201452,128.157663 78.0064764,125.029655 73.637761,125.299331 C67.2476996,125.693782 60.4313438,134.977292 57.5836623,146.044641 L57.5278254,146.261648 C54.5963886,157.654507 57.1162258,165.816262 63.9466123,164.771603 C69.0345534,163.993438 72.8651913,160.016646 77.0000583,154.354634 L84.7118101,163.433837 C77.9988742,173.379631 70.0619718,181.396164 58.9292142,183.535129 Z M87.4538217,176.730362 L102.337831,107.657552 L137.945598,107.019453 L135.553235,121.652941 L111.353374,123.159385 L109.344012,133.257937 L131.688746,131.261781 L129.40604,144.926013 L106.443707,147.834148 L104.339564,158.409047 L130.536911,154.414307 L128.154459,169.033159 L87.4538217,176.730362 Z M179.162996,160.434308 C164.798148,163.194263 154.796619,152.81577 156.930569,135.603656 C159.033889,118.638606 170.570826,105.322918 183.943423,105.135292 C192.963618,105.008732 198.589578,109.225688 202.355133,115.171241 L192.441781,123.942269 C190.016374,120.469488 187.159157,118.291778 182.790441,118.561454 C176.40038,118.955905 171.253228,125.77458 170.456858,133.812853 C169.621449,142.24516 173.79038,147.971777 180.620766,146.927117 C185.708707,146.148953 188.855575,143.181852 191.964786,139.034378 L201.768071,145.025112 C196.885226,152.268496 190.295754,158.295343 179.162996,160.434308 Z M207.406051,154.045296 L208.212436,105.760256 L229.14702,105.385104 C235.914393,105.263831 240.734605,106.85704 243.990056,109.615399 C246.862845,111.847036 248.560946,114.909972 248.996234,118.909355 C249.683862,125.22722 246.239794,129.830815 240.468822,132.815213 L253.552548,145.318186 L237.501592,148.353702 L226.931724,136.69027 L221.057446,137.522465 L221.307325,151.416322 L207.406051,154.045296 Z M220.878287,127.560831 L229.490521,126.652794 C233.931203,126.184587 236.361053,123.949529 236.158795,120.817039 L236.150863,120.694196 C235.932741,117.316021 233.211107,115.760771 228.968896,116.028163 L220.68027,116.550605 L220.878287,127.560831 Z M258.926752,144.30183 L253.686654,104.945348 L289.294421,104.307249 L291.645597,111.936173 L267.445737,113.442618 L268.483739,119.041268 L290.828473,117.045113 L292.944322,124.214204 L269.981989,127.12234 L271.068954,132.985078 L297.266301,128.990338 L299.627389,136.604627 L258.926752,144.30183 Z M302.708599,136.021916 L311.085671,103.714606 L322.90153,103.519249 L358.815287,125.41116 L343.910828,128.229854 L337.616197,124.409899 L318.674525,127.470055 L317.326433,133.257428 L302.708599,136.021916 Z M319.870391,120.804069 L330.599814,119.445209 L321.386476,112.465623 L319.870391,120.804069 Z M363.687898,124.489663 L346.153005,103.28833 L359.118533,103.055985 L377.680326,109.286245 L380.242857,102.677433 L393.208385,102.445087 L417,114.407412 L403.170382,117.022835 L390.439291,108.776665 L386.565525,116.416432 L386.285052,116.461555 L366.36957,111.14809 L377.302548,121.914895 L363.687898,124.489663 Z" id="BATTLES-ICE-CREAM" fill="#FFE2FA"/>
        <path d="M40.0144794,93.1986591 L63.7874063,11 L82.898801,15.9003389 C87.5834883,17.1015362 90.2714434,20.3325678 91.3434122,25.2906702 C92.0986989,28.6424176 92.0301925,32.8012627 90.7431595,37.9310869 C88.5176649,46.8014078 84.612161,51.5538581 80.3239296,53.9824799 C84.4314738,57.6429097 86.271855,63.1366529 83.7599824,73.2371855 C80.5342092,86.2083958 72.5628573,93.8491269 62.2681999,93.6433918 L40.0144794,93.1986591 Z M65.0071206,45.4064315 L71.9107222,46.4678925 C75.2493491,46.981222 77.699113,45.0627901 78.8930254,40.5414157 L78.951265,40.3208609 C80.0578179,36.1303188 79.0451773,33.3777398 75.8488428,32.7465534 L68.9050816,31.3753554 L65.0071206,45.4064315 Z M56.6090746,75.6359858 L65.5746529,76.2358946 C69.1011136,76.4718587 71.795054,74.0832899 72.9746821,69.5830084 L73.0322249,69.3634825 C74.1255387,65.1924899 73.0982014,62.2597802 69.3138521,61.8510696 L60.69718,60.9204669 L56.6090746,75.6359858 Z M80.6383071,94.010512 L114.845702,23.5607731 L124.789429,26.1299043 L128.906072,94.9751262 L116.083984,94.7188813 L115.40875,82.6010273 L99.1701544,81.6696756 L93.2138168,94.2618291 L80.6383071,94.010512 Z M105.966819,66.7332517 L115.124454,67.6953784 L114.825238,47.552724 L105.966819,66.7332517 Z M143.639145,95.2695614 L150.935303,48.8385605 L139.327048,46.6053862 L142.096213,31.0791045 L174.782554,39.4601855 L173.267376,53.1347626 L161.65912,50.9015883 L155.598208,95.5085591 L143.639145,95.2695614 Z M184.324617,96.0826462 L187.418392,55.8571085 L175.810136,53.6239341 L177.231368,40.088084 L209.917708,48.469165 L209.750465,60.1533106 L198.142209,57.9201362 L196.28368,96.3216439 L184.324617,96.0826462 Z M214.468853,96.6850682 L214.44269,49.6294124 L224.770296,52.2775064 L226.025352,86.08133 L246.230542,87.5213179 L247.325455,97.3416957 L214.468853,96.6850682 Z M252.441961,97.4439473 L247.235501,58.0377933 L277.206853,65.7227259 L279.5501,73.3633591 L259.064467,69.3851766 L260.097376,74.9913491 L279.078281,77.9624023 L281.186777,85.142351 L261.588273,83.0832773 L262.669905,88.9538918 L285.102967,90.5176954 L287.456125,98.143693 L252.441961,97.4439473 Z M310.736282,99.0794418 C303.074469,98.9530776 295.165341,97.1216449 288.751103,93.4785415 L293.195382,88.2011276 C298.187453,90.8957561 303.287537,92.4197495 308.135761,92.7336416 C311.248201,92.9351526 312.567733,92.3589383 311.973737,91.2177379 C311.359941,90.0384975 309.692736,89.3019655 303.710561,87.8907832 C294.437522,85.5497103 287.124011,82.9137037 284.933678,76.4600982 L284.903257,76.3704648 C282.925873,70.5442931 286.964437,67.7593963 295.883711,70.088355 C302.20153,71.7380341 307.81141,74.1872237 313.213041,77.3265582 L310.799098,81.1589456 C306.324794,78.8338288 301.993226,77.1572113 298.581668,76.4747957 C295.995488,75.9574806 295.081216,76.5311196 295.52035,77.564611 C296.117571,78.9701594 297.710903,79.7734798 303.575132,81.5433458 C313.389971,84.2587624 320.224725,86.8906067 323.126971,91.4183553 C326.339381,96.4299854 321.240382,99.2526831 310.736282,99.0794418 Z" id="BATTLES-ICE-CREAM" fill="#FFFAE2"/>
    </g>
</svg>